#define pause_width 48
#define pause_height 48
static unsigned char pause_bits[] = {
   0x00, 0x00, 0x00, 0x00, 0x00, 0x00, 0x00, 0x00, 0x00, 0x00, 0x00, 0x00,
   0x00, 0x00, 0x00, 0x00, 0x00, 0x00, 0x00, 0x00, 0x00, 0x00, 0x00, 0x00,
   0x00, 0x00, 0x00, 0x00, 0x00, 0x00, 0x00, 0x00, 0x00, 0x00, 0x00, 0x00,
   0x00, 0x00, 0x00, 0x00, 0x00, 0x00, 0x00, 0x00, 0x00, 0x00, 0x00, 0x00,
   0x00, 0x00, 0x00, 0x00, 0x00, 0x00, 0x00, 0x00, 0x00, 0x00, 0x00, 0x00,
   0x00, 0x00, 0x00, 0x00, 0x00, 0x00, 0x00, 0x00, 0x00, 0x00, 0x00, 0x00,
   0xe0, 0xff, 0xff, 0xff, 0xff, 0x07, 0x20, 0x00, 0x00, 0x00, 0x00, 0x0c,
   0x20, 0x00, 0x00, 0x00, 0x00, 0x0c, 0x20, 0x00, 0x00, 0x00, 0x00, 0x0c,
   0x20, 0x8c, 0x01, 0x00, 0x00, 0x0c, 0x20, 0x8c, 0x01, 0x00, 0x00, 0x0c,
   0x20, 0xdc, 0x01, 0x00, 0x00, 0x0c, 0x20, 0xdc, 0x01, 0x60, 0x00, 0x0c,
   0x20, 0xfc, 0x01, 0x60, 0x00, 0x0c, 0x20, 0xfc, 0x01, 0x00, 0x00, 0x0c,
   0x20, 0xac, 0x01, 0x00, 0x00, 0x0c, 0x20, 0xac, 0x01, 0x00, 0x00, 0x0c,
   0x20, 0xac, 0x01, 0x00, 0x00, 0x0c, 0x20, 0x8c, 0x01, 0x00, 0x00, 0x0c,
   0x20, 0x00, 0x00, 0x00, 0x00, 0x0c, 0x20, 0x78, 0x88, 0xc8, 0xfb, 0x0c,
   0x20, 0x88, 0x94, 0x28, 0x08, 0x0c, 0x20, 0x88, 0xa2, 0x28, 0x08, 0x0c,
   0x20, 0x78, 0xa2, 0xc8, 0x39, 0x0c, 0x20, 0x08, 0xbe, 0x08, 0x0a, 0x0c,
   0x20, 0x08, 0xa2, 0x08, 0x0a, 0x0c, 0x20, 0x08, 0x22, 0xe7, 0xf9, 0x0c,
   0x20, 0x00, 0x00, 0x00, 0x00, 0x0c, 0xe0, 0xff, 0xff, 0xff, 0xff, 0x0f,
   0xc0, 0xff, 0xff, 0xff, 0xff, 0x0f, 0x00, 0x00, 0x00, 0x00, 0x00, 0x00,
   0x00, 0x00, 0x00, 0x00, 0x00, 0x00, 0x00, 0x00, 0x00, 0x00, 0x00, 0x00,
   0x00, 0x00, 0x00, 0x00, 0x00, 0x00, 0x00, 0x00, 0x00, 0x00, 0x00, 0x00,
   0x00, 0x00, 0x00, 0x00, 0x00, 0x00, 0x00, 0x00, 0x00, 0x00, 0x00, 0x00,
   0x00, 0x00, 0x00, 0x00, 0x00, 0x00, 0x00, 0x00, 0x00, 0x00, 0x00, 0x00,
   0x00, 0x00, 0x00, 0x00, 0x00, 0x00, 0x00, 0x00, 0x00, 0x00, 0x00, 0x00};
