#define run_width 48
#define run_height 48
static unsigned char run_bits[] = {
   0x00, 0x00, 0x00, 0x00, 0x00, 0x00, 0x00, 0x00, 0x00, 0x00, 0x00, 0x00,
   0x00, 0x00, 0x00, 0x00, 0x00, 0x00, 0x00, 0x00, 0x00, 0x00, 0x00, 0x00,
   0x00, 0x00, 0x00, 0x00, 0x00, 0x00, 0x00, 0x00, 0x00, 0x00, 0x00, 0x00,
   0x00, 0x00, 0x00, 0x00, 0x00, 0x00, 0x00, 0x00, 0x00, 0x00, 0x00, 0x00,
   0x00, 0x00, 0x00, 0x00, 0x00, 0x00, 0x00, 0x00, 0x00, 0x00, 0x00, 0x00,
   0x00, 0x00, 0x00, 0x00, 0x00, 0x00, 0x00, 0x00, 0x00, 0x00, 0x00, 0x00,
   0xe0, 0xff, 0xff, 0xff, 0xff, 0x07, 0x20, 0x00, 0x00, 0x00, 0x00, 0x0c,
   0x20, 0x00, 0x00, 0x00, 0x00, 0x0c, 0x20, 0x7e, 0x00, 0x40, 0x00, 0x0c,
   0x20, 0xc6, 0x00, 0x20, 0x00, 0x0c, 0x20, 0xc6, 0x00, 0x10, 0x00, 0x0c,
   0x20, 0xc6, 0x00, 0x08, 0x00, 0x0c, 0x20, 0x7e, 0x00, 0x10, 0x00, 0x0c,
   0x20, 0x36, 0x00, 0x20, 0x00, 0x0c, 0x20, 0x66, 0x00, 0x40, 0x00, 0x0c,
   0x20, 0x66, 0x00, 0x00, 0x00, 0x0c, 0x20, 0xc6, 0x00, 0x00, 0x00, 0x0c,
   0x20, 0xc6, 0x00, 0x00, 0x00, 0x0c, 0x20, 0x00, 0x00, 0x00, 0x00, 0x0c,
   0x20, 0x00, 0x00, 0x00, 0x00, 0x0c, 0x20, 0x00, 0xe0, 0x89, 0x22, 0x0c,
   0x20, 0x00, 0x20, 0x8a, 0x26, 0x0c, 0x20, 0x00, 0x20, 0x8a, 0x2a, 0x0c,
   0x20, 0x00, 0xe0, 0x89, 0x2a, 0x0c, 0x20, 0x00, 0xa0, 0x88, 0x32, 0x0c,
   0x20, 0x00, 0x20, 0x89, 0x22, 0x0c, 0x20, 0x00, 0x20, 0x72, 0x22, 0x0c,
   0x20, 0x00, 0x00, 0x00, 0x00, 0x0c, 0xe0, 0xff, 0xff, 0xff, 0xff, 0x0f,
   0xc0, 0xff, 0xff, 0xff, 0xff, 0x0f, 0x00, 0x00, 0x00, 0x00, 0x00, 0x00,
   0x00, 0x00, 0x00, 0x00, 0x00, 0x00, 0x00, 0x00, 0x00, 0x00, 0x00, 0x00,
   0x00, 0x00, 0x00, 0x00, 0x00, 0x00, 0x00, 0x00, 0x00, 0x00, 0x00, 0x00,
   0x00, 0x00, 0x00, 0x00, 0x00, 0x00, 0x00, 0x00, 0x00, 0x00, 0x00, 0x00,
   0x00, 0x00, 0x00, 0x00, 0x00, 0x00, 0x00, 0x00, 0x00, 0x00, 0x00, 0x00,
   0x00, 0x00, 0x00, 0x00, 0x00, 0x00, 0x00, 0x00, 0x00, 0x00, 0x00, 0x00};
